<?xml version="1.0" standalone="no"?> <!DOCTYPE svg PUBLIC "-//W3C//DTD SVG 1.0//EN" "http://www.w3.org/TR/2001/REC-SVG-20010904/DTD/svg10.dtd" > <svg xmlns="http://www.w3.org/2000/svg" width="100%" height="100%">
<defs >
<font id="ck_alis_hand" horiz-adv-x="362" ><font-face
    font-family="CK Alis Hand"
    units-per-em="1000"
    panose-1="2 0 0 0 0 0 0 0 0 0"
    ascent="750"
    descent="-250"
    alphabetic="0" />
<missing-glyph horiz-adv-x="348" />
<glyph unicode=" " glyph-name="null" horiz-adv-x="348" />
<glyph unicode="!" glyph-name="null" horiz-adv-x="266" d="M46 52Q46 69 61 81T90 93Q93 93 97 89T106 79T112 68T115 60Q115 54 111 48T102 36T90 27T78 23Q66 23 56 30T46 52ZM14 229Q14 274 20 319T33 409Q47 535 62 662T75 916Q75 926 83 928T98 930Q120
930 129 916V879Q129 841 122 805T110 730Q101 642 97 549T71 368V207Q71 199 60 191T42 183Q32 183 27 188T18 200T15 215T14 229Z" />
<glyph unicode="&quot;" glyph-name="null" horiz-adv-x="327" d="M242 616Q239 601 221 601Q214 601 208 603T202 614V771Q201 777 201 786T200 809V826Q202 832 208 836T219 841Q228 841 232 836T242 819V820Q243 809 243 798Q243 788 243 777V660Q243 622 242
618V616ZM128 609Q128 602 122 597T106 592Q91 592 88 614V699Q88 757 81 777H86Q89 832 110 832Q116 832 121 828T129 819V741Q128 729 128 714Q128 699 128 693V609V609ZM81 777H75Q75 798 81 777Z" />
<glyph unicode="#" glyph-name="null" horiz-adv-x="745" d="M433 398V80Q433 75 427 71T411 66Q401 66 396 69T391 78V397L321 382Q326 336 328 282T334 180V120Q334 110 312 110Q299 110 295 120L281 370H268Q243 362 216 357T165 344H157Q137 344 137 362Q137
370 139 375T150 382L276 414L264 572Q230 564 195 557T125 546Q106 544 106 566Q106 582 124 584L258 612V666Q257 683 257 692Q257 702 257 706V737Q259 741 263 745T276 749Q296 749 296 732L297 618H391V789Q391 801 411 801Q433 801 433 789V618Q435 618 441
618Q448 618 455 616Q464 616 470 616Q477 616 479 618Q549 618 615 636H620Q640 636 640 616Q640 611 636 606T626 599Q540 576 433 576V443Q435 443 447 443Q459 443 470 444H523Q541 443 541 423Q541 411 527 403H496Q475 403 462 402T444 400L433 398ZM327
576Q325 576 320 576Q316 576 305 574V555L318 423L391 434V576H327Z" />
<glyph unicode="$" glyph-name="null" horiz-adv-x="883" d="M740 634Q715 634 686 651L588 694Q568 702 552 706T521 710Q513 710 509 710T497 706L514 507Q529 507 539 507Q550 507 560 509Q571 510 580 510T597 511Q719 511 719 431Q719 395 690 354T603 264Q588
250 571 238T534 214Q534 197 534 166Q534 135 536 104V71Q537 48 537 30Q537 13 537 0V-21Q536 -30 531 -33T519 -36Q507 -36 501 -33T495 -21L494 192L375 151V131Q380 83 387 35T399 -61Q399 -63 401 -66T408 -75Q410 -77 413 -82T416 -93Q416 -114 392 -114Q379
-114 372 -102T360 -66L334 136Q326 136 319 135T306 131Q298 129 288 128T283 127Q230 127 226 167V180Q226 193 233 219T257 286V284Q260 291 264 293T271 297H278Q297 297 297 281Q297 280 297 279T296 276Q294 271 292 266Q290 261 288 257T284 249Q283 244
283 241T280 233Q267 190 267 180V168H281Q306 168 328 176V192Q327 240 325 287T321 379V455Q307 460 296 462T276 464Q267 466 256 468T233 476H234Q229 480 221 482T201 486Q148 507 123 528T97 573Q97 610 145 624L263 661L334 694V757Q333 770 333 780Q333
790 333 798V916Q335 989 359 989Q379 989 379 968V962Q376 939 375 914T373 868V834Q373 825 373 807Q373 790 375 777Q375 761 375 742T376 714L454 741Q451 781 447 827T436 916V938Q436 945 441 949T455 953Q476 953 476 937L495 751Q557 748 602 730H601Q621
722 644 712T688 693Q691 692 690 693T692 693Q697 690 707 685T728 677Q758 665 758 657Q758 634 740 634ZM475 499L461 701L447 697Q439 695 422 689T376 668Q373 664 373 660L367 494H407Q410 494 417 494Q424 494 429 495H436Q450 495 457 495T467 497L475
499ZM559 467Q545 467 539 466T521 464L529 261Q534 264 538 267Q545 271 550 276Q554 278 560 281T571 288Q582 302 593 311T615 328Q678 388 678 431Q678 448 665 457T620 467H559ZM315 634L319 637Q324 640 323 640T318 640T308 636T297 633Q293 630 286 627T271
620Q243 612 216 604T160 588Q151 586 145 582T139 571Q140 570 142 568T145 562L149 560Q180 542 214 528T280 507Q287 504 298 501T320 498L328 635L315 634ZM470 454Q462 454 448 453T419 452Q404 451 387 451Q370 451 362 451Q362 419 363 385T365 317T368
249T372 188Q380 196 381 197T384 199Q386 199 388 199T393 200L493 242L479 450L470 454Z" />
<glyph unicode="%" glyph-name="null" horiz-adv-x="643" d="M461 896H462Q464 896 464 897H452Q451 897 449 897T446 896H438L273 840Q305 800 305 768Q305 748 298 731T277 702T247 683T211 676Q170 676 142 702T114 768Q114 807 139 831T215 863L407 929Q421
935 436 937T464 940Q501 940 509 914V893Q507 885 505 875T499 857L284 260Q274 220 264 179T243 97Q236 80 234 62T229 21Q228 16 227 5T223 -20Q221 -25 216 -29T202 -34Q186 -34 186 -21V1Q188 21 190 41T194 80Q208 125 220 175T243 271L461 869V872L464 890L461
896ZM467 35Q449 35 434 42T408 62T391 92T384 127Q384 145 390 162T408 191T434 211T467 219Q503 219 526 191T549 127Q549 90 526 63T467 35ZM211 819Q156 819 156 768Q156 715 212 715Q263 715 263 768Q263 819 211 819ZM467 179Q424 179 424 127Q424 77 467
77Q510 77 510 127Q510 179 467 179Z" />
<glyph unicode="&amp;" glyph-name="null" horiz-adv-x="1194" d="M362 113Q362 111 364 109T367 105Q367 97 376 90Q378 92 380 98T384 105H383Q389 115 393 123T401 141Q416 179 430 218T462 295V294Q465 306 479 306Q507 306 507 234Q507 230 507 221T504 202Q503
193 503 184Q503 175 503 170L511 167Q517 176 520 183T525 192L538 219H537Q547 236 559 243T588 251Q613 251 628 231L626 232L644 181Q647 171 666 150Q673 190 699 224T772 284Q775 286 779 289Q782 291 785 293T794 297Q799 297 801 298T809 304Q816 307 834
314Q840 316 840 323L816 507Q814 523 814 544Q814 565 814 590Q814 638 819 686T835 782Q843 809 855 848T884 941Q884 942 886 946T895 959Q897 967 902 977T911 998Q943 1060 979 1092T1051 1125Q1148 1125 1148 974Q1148 958 1146 926T1137 854Q1135 853 1135
848Q1135 844 1135 842Q1101 729 1067 614T999 383Q987 346 965 302T910 208Q910 196 915 177T932 127Q955 68 986 18T1052 -75V-73Q1055 -78 1055 -82Q1055 -104 1035 -104Q1033 -104 1026 -99T1010 -86Q968 -36 935 28T872 173Q868 168 860 161T844 149L823 127Q761
76 724 76Q707 76 694 86T669 115Q652 117 638 124T615 145Q610 153 605 169T590 215Q587 213 581 206T572 192H573Q558 168 550 154T540 136L541 137Q526 108 511 95T481 82Q461 82 461 123V148L447 149Q445 141 440 130T433 110V112Q401 42 368 42Q340 42 320
115Q291 63 262 37T201 10H188Q177 16 172 35T166 82Q166 149 202 216T306 346Q308 348 310 348H312Q319 348 333 340Q342 350 353 350Q372 350 372 333V327L355 229V188Q355 151 362 113ZM1109 1005Q1103 1044 1090 1064T1051 1084Q1010 1084 958 1003L953 991Q948
980 941 966T924 931Q914 906 908 886T896 851Q887 829 883 811T877 772Q866 723 860 677T853 590Q853 559 853 536T855 496L879 327L931 330Q933 335 937 337Q938 342 941 352T954 381L1063 728L1098 869Q1099 876 1103 894T1109 946V1005V1005ZM895 288Q885 282
883 271H906L904 284L895 288ZM852 273H840L826 271Q824 269 821 268Q819 266 817 266T814 264Q768 241 740 216T705 165V151Q705 114 724 114Q749 114 793 154Q829 180 846 198T863 223L852 273ZM305 293Q303 291 301 288Q299 286 298 284T295 280V281Q202 178
202 82Q202 51 215 51Q219 51 224 52T232 60H231Q251 72 271 105T305 176Q309 190 311 204T315 231L321 286V310L305 293Z" />
<glyph unicode="&apos;" glyph-name="null" horiz-adv-x="181" d="M128 609Q128 602 122 597T106 592Q91 592 88 614V699Q88 729 88 746Q88 763 86 774V777Q89 832 110 832Q116 832 121 828T129 819V741Q128 729 128 714Q128 699 128 693V609V609Z" />
<glyph unicode="(" glyph-name="null" horiz-adv-x="330" d="M212 -64Q151 -7 113 52T52 175T22 310T14 464Q14 540 31 614T81 757T161 885T267 992Q273 997 276 1001T283 1009T290 1014T304 1016Q310 1016 311 1013T312 1006Q312 1004 293 981T249 929T203 872T175
835Q152 797 132 762T92 685Q83 646 72 610T55 534Q55 529 55 518T54 493Q54 480 54 469T53 454Q53 367 67 282T124 118Q130 106 151 81T194 28T235 -22T253 -50Q253 -59 246 -65T229 -71Q223 -71 220 -69T212 -64Z" />
<glyph unicode=")" glyph-name="null" horiz-adv-x="330" d="M14 -81Q14 -78 26 -65T53 -35T82 -4T103 18Q141 67 168 111T214 199T248 292T276 399Q275 448 274 495T267 589T250 681T220 771Q211 792 200 810T176 847T150 882T124 919Q119 926 111 931T94 942T81
955T75 972Q75 981 82 987T98 993Q110 993 121 985T142 967T161 945T175 928Q215 882 241 832T284 728T306 616T312 496Q312 437 305 384T285 279T250 179T201 77Q185 64 165 37T123 -18T77 -67T29 -88Q25 -89 21 -88Q14 -86 14 -81Z" />
<glyph unicode="*" glyph-name="null" horiz-adv-x="668" d="M567 598H527Q498 599 488 599Q478 599 485 599Q492 599 483 599Q474 599 454 598H421Q420 597 414 597Q421 578 429 558T447 513Q451 511 452 504V495Q452 470 431 470Q412 470 403 488Q398 504 390
520T373 557Q373 558 372 559L371 565L312 401L286 344Q259 296 240 296Q215 296 215 320Q215 321 219 330T233 356Q237 364 241 371T252 389L294 494Q302 510 308 534T324 589Q302 589 263 586Q242 584 227 584Q212 584 201 584H188Q184 584 176 584Q168 584 154
586L118 588Q90 589 90 612Q90 626 96 631T115 637Q123 637 136 637T162 636Q176 636 188 636T207 635H255Q264 635 282 636T323 642H329Q305 680 282 715T232 780Q230 782 230 785T229 793Q229 819 255 819Q265 819 272 809Q298 777 319 750T355 699Q357 711 362
731T372 780Q373 783 374 791T379 816Q381 832 387 840T405 848Q429 848 429 829V808Q419 751 411 711T393 646Q401 646 414 646Q427 646 440 646T467 647Q480 647 488 647H527Q534 647 546 647T562 646Q599 646 599 620Q599 607 594 603T580 598H567Z" />
<glyph unicode="+" glyph-name="null" horiz-adv-x="572" d="M463 411Q457 411 446 411T424 410T401 409T384 408H357H321Q297 409 288 409Q279 409 284 409Q284 404 284 396Q284 388 284 380T283 362Q283 354 283 350Q283 318 286 279T297 192V186Q297 172 293
165T276 158Q252 158 249 179L235 272L229 419L173 435Q156 439 148 446T139 463Q139 489 163 489Q166 489 167 488Q178 485 193 481T228 471Q229 471 232 470L234 559Q234 576 258 576Q284 576 284 557V462Q295 461 309 461T339 458H356Q365 458 378 458T405 460T431
461T452 462H464Q483 461 483 436Q483 419 463 411Z" />
<glyph unicode="," glyph-name="null" horiz-adv-x="217" d="M-1 -186Q9 -165 20 -144T41 -101T57 -57T63 -9Q63 7 57 20T42 46T27 71T20 98Q20 110 29 114T49 119Q69 119 82 106T102 75T111 36T114 -1Q114 -59 88 -110T17 -200H12Q7 -200 3 -197T-1 -189V-186Z" />
<glyph unicode="-" glyph-name="null" horiz-adv-x="528" d="M205 371H145Q134 371 131 378T127 397Q127 408 130 408T145 407L411 414Q417 416 419 416Q421 416 420 416Q431 416 437 416T444 405Q444 392 439 387T429 381L205 371Z" />
<glyph unicode="." glyph-name="null" horiz-adv-x="272" d="M29 29Q29 44 44 53T73 63Q80 63 86 52T93 33Q93 19 83 8T60 -3Q46 -3 38 6T29 29Z" />
<glyph unicode="/" glyph-name="null" horiz-adv-x="443" d="M324 546Q302 470 280 392T234 238L145 3V5Q142 0 139 -4T127 -9Q107 -9 107 14V20L232 358L304 634L329 790Q330 798 336 800T350 803Q358 803 363 799T368 783V776L324 546Z" />
<glyph unicode="0" glyph-name="null" horiz-adv-x="509" d="M14 271Q14 362 34 452T92 624Q108 657 125 686T166 742Q169 747 174 751T185 758T195 765T200 774Q200 781 189 781T173 782Q129 782 97 765T42 707Q41 707 41 707T39 706H36Q34 706 31 708T28 716Q28
744 44 763T85 793T136 809T186 814Q275 814 334 779T428 687T479 557T494 407Q494 370 486 325T461 235T420 147T365 72T295 19T211 -1Q156 -1 119 24T58 89T24 177T14 271ZM50 267Q50 232 58 192T84 119T131 63T202 41Q247 41 283 59T346 109T394 179T426 261T445
346T451 423Q451 500 435 570T368 698Q351 718 328 736T277 755Q235 755 202 728T144 656T101 558T72 449T55 347T50 267Z" />
<glyph unicode="1" glyph-name="null" horiz-adv-x="202" d="M43 18Q43 93 54 169T72 324V515Q72 566 72 599T74 661T75 722T76 803Q76 811 76 818Q76 825 78 831H92Q100 831 106 830T118 820Q119 767 118 731T116 663T114 595T113 507Q113 491 113 465Q113 440
113 416T112 374Q112 357 112 356Q112 356 111 348T109 328T107 305T106 286Q106 281 106 272T105 252T104 232Q104 224 104 221Q103 214 102 195T98 152T93 100T86 51T75 14T61 -1Q50 -1 47 3T43 18Z" />
<glyph unicode="2" glyph-name="null" horiz-adv-x="545" d="M14 53Q14 114 51 161T142 243T257 302T366 339Q377 343 378 357T379 381Q379 417 374 466T353 559T306 635T226 666Q190 666 169 649T134 611T114 573T98 555Q90 555 86 561T82 577Q82 606 95 630T128
671T175 697T228 707Q249 707 267 700T303 681T335 654T366 624Q387 601 397 567T412 495T416 422T414 357Q416 352 419 352T424 353Q444 353 460 355T495 357H521Q523 355 524 355T525 349Q525 347 508 343T470 333T431 322T409 312Q396 283 388 250T368 188Q354
152 328 115T267 48T194 -1T114 -21Q95 -21 77 -18T45 -5T23 18T14 53ZM55 61Q55 47 57 36T75 20H103Q146 20 192 47T278 115T342 204T367 297H355Q353 297 345 295T325 288T303 280T284 273Q254 261 215 242T140 196T80 135T55 61Z" />
<glyph unicode="3" glyph-name="null" horiz-adv-x="660" d="M35 76Q35 87 42 103T61 135T88 162T118 173Q123 173 124 170T125 163V158Q118 151 109 142T92 123T77 101T71 78Q71 60 86 49T121 32T162 25T192 23Q245 23 300 33T408 63T507 115T588 190Q595 198
599 209T603 232Q603 253 589 269T554 296T505 315T452 327T402 332T366 334H319Q301 328 275 321T220 308T165 298T120 293Q109 293 101 297T92 315Q92 321 115 340T174 386T249 440T325 495T383 540T407 566Q407 571 403 572T397 574Q369 574 345 570T295 565H28Q20
565 17 575T14 590Q14 599 20 602T35 605Q55 605 76 603T118 601Q164 601 209 604T298 612T388 620T479 624H504Q519 622 519 605Q519 595 497 575T441 531T369 479T296 427T241 384T218 357Q258 357 295 364T371 371Q391 371 419 368T477 359T537 341T590 315T628
278T643 229Q643 207 629 187T600 149Q567 109 521 79T422 29T316 -2T211 -12Q190 -12 160 -10T102 2T55 28T35 76Z" />
<glyph unicode="4" glyph-name="null" horiz-adv-x="586" d="M257 10Q266 77 275 130T291 234T303 338T308 460Q308 461 308 467Q308 473 308 479Q308 485 308 490T307 497Q304 502 300 502T293 503Q239 503 188 499T81 494Q75 494 56 493T17 494T-18 502T-34
524Q-34 544 -20 553Q-17 555 -6 562T18 578T41 594T53 603Q56 605 62 610T76 621T90 633T99 642Q101 642 107 647T120 659T135 672T145 683Q147 685 155 692T173 708T191 723T201 731Q203 734 211 741T229 756T247 770T257 779Q261 783 273 792T297 813T320 836T330
857V946Q330 948 337 951T348 954Q352 954 361 943T378 917T393 890T400 878Q400 867 396 858T387 841T377 824T372 802Q369 745 366 687T362 572V553L368 549H407Q453 549 499 551T592 553Q600 553 609 551T618 539Q618 531 607 527T581 521T553 518T536 515Q534
515 524 515T502 514T476 513T455 511Q450 511 438 510T412 509T386 508T368 507L358 503Q357 496 356 490Q355 485 355 479Q355 473 355 470Q355 467 354 457T352 436T350 414T349 400Q349 397 348 384T345 356T342 328T340 312Q338 298 336 269T331 203T323 129T312
59T299 7T283 -14Q274 -14 266 -9T257 5V10ZM50 539Q58 535 68 535T87 536Q93 536 113 536Q133 536 158 536T212 538T264 542T303 548T318 558Q322 613 324 666T327 776Q326 775 325 775Q324 774 321 774Q308 768 293 756T264 732T237 707T215 688Q213 685 206
678T189 662T170 645T156 633Q151 628 134 614T98 584T64 555T49 540L50 539Z" />
<glyph unicode="5" glyph-name="null" horiz-adv-x="494" d="M14 33Q14 40 16 55T22 87T34 115T51 127Q51 106 50 88T49 49Q80 49 118 63T195 101T270 156T335 221T380 291T397 359Q397 398 375 415T314 433Q278 433 248 420T190 391T135 362T76 349Q65 349 57
355T46 372V398Q46 467 58 514T97 596T169 654T277 699Q300 708 329 718T384 728Q395 728 401 720T407 704Q407 699 406 694T397 686Q335 672 280 657T183 614T117 541T92 424V405Q92 400 97 400Q105 400 115 404T136 414T155 426T171 436Q202 454 235 464T305
475Q330 475 353 468T395 445T423 409T434 359Q434 320 416 279T367 198T297 123T214 61T128 19T46 3H28Q14 14 14 33Z" />
<glyph unicode="6" glyph-name="null" horiz-adv-x="434" d="M14 337Q14 407 18 465T32 578T59 688T105 809Q110 821 117 840T134 877T157 908T188 921Q193 921 202 917T220 907T235 894T242 881Q242 873 238 869T228 864Q218 864 210 868T192 872Q187 872 180
866Q139 801 115 739T76 612T58 481T53 340Q53 335 53 323T54 297Q54 284 54 273T55 257Q58 238 65 203T85 132T118 71T165 45Q165 52 159 61T145 81T131 108T124 141Q124 184 136 229T174 312T236 373T321 397Q342 397 359 388T389 365T409 331T416 293Q416 248
402 197T361 101T293 27T201 -2Q159 -2 129 15T79 59T45 122T26 195T17 270T14 337ZM166 145Q166 105 189 82T253 59Q280 59 302 85T339 146T364 217T373 273Q373 285 373 299T368 326T356 346T333 355Q294 355 263 336T211 286T178 218T166 145Z" />
<glyph unicode="7" glyph-name="null" horiz-adv-x="489" d="M203 25Q203 61 210 99T227 175T250 250T272 321Q288 375 300 431T329 541Q331 545 335 557T344 584T352 610T357 628Q364 646 374 667T395 711T412 757T420 800Q420 801 418 802T413 806Q410 808 407
809Q405 809 400 809T388 810Q382 810 377 810Q372 810 371 810Q303 810 237 803T104 789Q72 785 40 777T-24 768Q-32 768 -38 773T-45 789Q-45 803 -16 813T57 832T155 845T259 853T349 857T405 859Q408 859 417 859T436 858Q446 858 455 858T467 857Q475 854
479 847T484 833Q484 824 477 804T461 761T443 717T431 686Q369 531 322 361T252 25Q251 14 246 3T229 -9Q218 -9 211 0T203 25Z" />
<glyph unicode="8" glyph-name="null" horiz-adv-x="392" d="M77 50Q79 89 88 128T110 205T138 281T166 355Q169 365 175 378T187 406T197 435T202 462Q202 485 188 511T153 564T108 619T63 673T28 724T14 768Q14 792 39 811T97 843T164 864T215 871Q216 871 221
871T233 870Q239 870 244 870T253 869Q284 858 304 846T350 815H355Q357 815 359 818T363 826T366 835T368 840Q384 877 406 923T448 1019T483 1117T497 1209Q497 1241 480 1256T431 1272Q408 1272 387 1264T347 1247T316 1230T294 1222Q284 1222 284 1231L286
1235Q312 1268 347 1291T426 1314Q451 1314 473 1305T511 1281T536 1245T545 1200Q545 1160 532 1122T501 1048T464 975T434 903Q412 839 387 775T333 650Q324 632 310 608T284 557T262 505T253 458V455Q280 395 299 336T319 212Q319 174 310 131T279 51T225 -11T145
-36Q129 -36 117 -28T95 -8T82 20T77 50ZM119 46Q119 36 120 23T133 3H155Q188 3 213 21T256 67T283 127T292 188Q292 202 288 234T277 302T258 367T231 405Q224 402 214 377T191 314T166 234T143 151T126 83T119 46ZM63 760Q63 743 78 718T114 667T155 617T186
580Q187 578 192 569T203 550T214 531T220 521Q221 521 223 518T228 515Q230 516 238 533T258 577T283 633T307 691T325 740T333 770Q333 787 321 798T292 817T257 828T228 831Q216 831 189 826T134 812T85 789T63 760Z" />
<glyph unicode="9" glyph-name="null" horiz-adv-x="414" d="M212 8Q212 18 224 40T252 87T283 137T305 176Q331 253 335 334T340 495Q340 496 340 506Q340 517 340 530T339 556T337 576Q337 580 337 591T335 615T331 640T323 657H320Q316 657 307 641T283 599T249
546T208 492T162 451T110 434Q86 434 68 446T38 478T20 521T14 566Q14 607 29 652T71 735T137 797T220 822Q249 822 280 811T337 779T380 730T397 669Q397 664 393 663T385 660T376 656T372 650Q372 605 377 560T382 470Q382 412 379 356T366 245T335 140T281 40Q276
33 270 25T257 9T243 -4T226 -9Q218 -9 215 -4T212 8ZM61 562Q61 550 62 536T67 509T81 488T107 479Q130 479 152 494T193 532T230 585T263 644T289 699T308 742V745Q308 755 299 761T278 770T252 775T232 776Q192 776 160 757T106 706T73 637T61 562Z" />
<glyph unicode=":" glyph-name="null" horiz-adv-x="261" d="M86 160Q86 182 98 190T128 199H144Q152 193 153 184T154 168Q154 151 143 140T112 129Q99 129 93 140T86 160ZM104 308Q104 323 113 332T138 341Q150 341 155 331T160 310Q160 299 155 285T136 271Q122
271 113 284T104 308Z" />
<glyph unicode=";" glyph-name="null" horiz-adv-x="199" d="M28 -160Q37 -129 46 -116T62 -92T73 -67T77 -20V5Q69 15 66 27T63 51Q63 60 67 71T79 91T96 107T114 114Q124 114 137 109T151 90Q151 79 145 67T138 40Q137 29 134 9T126 -36T112 -84T93 -129T69
-162T40 -175Q35 -175 32 -172T28 -165V-160ZM115 268Q114 270 114 276Q114 283 114 284Q114 302 124 315T155 328Q169 328 174 318T180 297Q180 292 179 285T174 271T165 260T151 255Q143 255 132 260T115 268Z" />
<glyph unicode="&lt;" glyph-name="null" horiz-adv-x="551" d="M454 228Q431 233 405 241T355 258Q334 266 303 272T233 283Q204 284 173 289Q159 292 143 293T113 296Q98 298 98 314Q98 329 120 348Q123 350 126 352T131 357Q137 361 141 365T151 372H150Q160
380 171 385T191 398V397L340 470Q357 478 381 496T429 538Q432 539 435 539Q458 539 458 521Q458 520 458 517T454 509Q437 490 414 473T370 444Q328 423 288 401T208 359Q203 359 201 357H202L158 328Q195 324 239 318T321 307Q336 304 354 300T388 292Q395 289
400 286T416 281Q426 278 437 275T462 267Q479 262 479 246Q479 228 461 228H454Z" />
<glyph unicode="=" glyph-name="null" horiz-adv-x="618" d="M496 447Q488 447 460 447Q433 447 401 446L306 445H173Q167 449 162 453T157 463Q157 471 162 476T173 485H292Q314 485 347 485Q380 485 409 486Q411 486 417 486Q423 486 429 488H426Q439 489 449
489Q459 489 473 488Q481 488 486 486H495Q509 484 509 468Q509 452 496 447ZM138 288Q128 286 123 292T118 308Q118 318 124 322T140 328L468 349Q479 350 479 330Q479 317 468 312L138 288Z" />
<glyph unicode="&gt;" glyph-name="null" horiz-adv-x="511" d="M118 513Q105 515 105 534Q105 551 125 551H129Q170 542 212 531T295 510Q296 509 298 509Q302 509 303 508T305 507H304L319 503Q325 500 333 497T353 489Q355 489 356 488Q357 488 359 487T366
486L399 467Q421 457 421 443Q421 437 419 431T412 420Q353 342 231 242H232Q210 224 189 206T145 170Q143 167 133 167Q114 167 114 188Q114 193 116 197T120 203L278 336Q280 338 289 348T314 373Q322 381 331 391T355 412Q355 414 356 416T359 421L372 434Q369
436 361 441T346 450V447Q329 459 319 461L118 513Z" />
<glyph unicode="?" glyph-name="null" horiz-adv-x="460" d="M175 28Q175 69 211 69Q225 69 233 63T242 42Q242 35 239 27T230 11T217 0T202 -5Q194 -5 187 -1T175 8V28ZM104 216Q104 239 116 256T146 287T183 313T215 339Q245 370 278 410T338 495T383 588T401
687Q401 747 369 771T286 796Q237 796 191 775T104 728Q95 723 87 715T71 700T54 687T34 681Q22 681 17 690T12 713Q12 730 29 747T74 779T135 808T200 832T259 847T300 853Q378 853 412 807T447 684Q447 655 430 609T384 509T320 401T249 302T180 231T124 203Q119
203 112 205T104 216Z" />
<glyph unicode="@" glyph-name="null" horiz-adv-x="788" d="M523 154Q511 154 495 159T461 180Q433 140 392 140Q360 140 344 156T327 203Q327 216 329 229T340 257Q363 303 392 339T462 399Q466 402 471 404T483 407Q486 405 490 403Q498 399 503 397Q508 390
514 385T520 373Q515 331 507 296T488 232Q488 210 496 202T524 194Q551 194 583 226Q677 311 677 458Q677 564 637 647Q611 704 574 731T489 758Q460 758 429 747T366 713Q319 678 283 638T217 549Q188 498 173 445T158 337Q158 292 170 249T204 167T256 97T324
45Q372 19 421 5T521 -9Q542 -9 561 -2T597 11L611 17Q629 17 629 -1Q629 -30 565 -45Q560 -46 555 -47T546 -49H521Q464 -49 410 -34T304 10Q259 33 226 67T168 148Q119 235 119 339Q119 392 136 451T180 562Q208 614 246 659T329 740Q369 764 413 782T493 801Q547
801 590 770T666 678Q716 581 716 454Q716 306 633 214Q606 183 578 169T523 154ZM475 340L473 367Q471 366 464 359T455 350Q367 264 367 201Q367 190 372 185T392 179Q430 179 447 233Q447 234 448 238T450 243Q451 250 451 257Q451 264 452 272L473 344L475
340Z" />
<glyph unicode="A" glyph-name="null" horiz-adv-x="618" d="M61 -63Q61 -53 68 -43T77 -25Q89 7 103 40T129 107T148 175T156 243Q127 243 99 241T43 238Q32 238 23 246T14 266Q14 271 18 274T28 280Q34 280 48 280T78 282T109 283T129 284Q132 284 139 284Q146
284 154 285T169 289T180 297Q189 311 200 350T225 438T252 540T279 638T303 712T323 741Q335 741 343 714T357 646T367 558T377 470T388 402T403 375Q427 375 449 386T494 410T539 434T586 445Q596 445 598 443T600 432Q600 424 588 416T558 399T517 381T473 363T434
343T407 321Q416 289 422 256T436 191Q441 174 448 153T462 110T474 66T479 25Q479 19 477 11T464 2Q459 2 445 19T412 62T368 117T318 173T265 216T214 233Q199 233 188 209T167 149T149 72T131 -6T111 -66T86 -90Q78 -90 70 -82T61 -63ZM240 257Q249 253 265
242T299 217T336 188T372 160T400 139T416 131Q416 133 415 138T414 145Q413 149 411 162T406 189T401 217T397 238Q395 246 394 259T389 286T381 308T367 318H358Q340 313 326 308T299 298T273 287T244 271Q240 267 240 261V257V257ZM315 631Q312 631 304 609T286
554T263 480T242 405T226 343T219 310Q231 310 255 315T304 328T347 348T366 372Q366 383 364 405T357 454T348 510T338 564T327 607T319 631H315V631Z" />
<glyph unicode="B" glyph-name="null" horiz-adv-x="749" d="M253 62Q253 114 255 165T258 268Q258 279 250 281T233 285T215 289T207 306Q207 322 217 331T239 349T261 368T272 397Q272 407 273 433T276 490T279 548T281 586V589Q281 591 277 592Q274 596 268
596T260 597Q252 597 223 593T160 581T101 562T75 534Q75 528 78 524T86 515T93 507T97 497Q97 487 89 486T75 484Q65 484 55 487T35 497T20 513T14 534Q14 556 29 572T68 600T122 618T181 630T235 638T277 646Q283 647 285 652T290 663T296 673T308 678Q319 678
323 675T330 666T336 656T346 646Q360 645 386 644T443 638T507 627T567 607T611 578T628 538Q628 511 614 488T584 447T553 416T539 399Q539 395 553 391T589 382T635 368T682 349T717 321T732 283Q732 252 716 223T672 168T610 121T539 85T469 62T409 53Q382
53 359 63T310 73Q310 65 312 57T314 42V35Q311 33 301 22T286 8Q284 6 281 5T277 3Q267 3 262 15T253 33V62ZM308 158Q308 140 318 128T343 109T376 98T409 95Q441 95 488 109T578 148T652 206T683 278V292Q648 326 602 338T507 350Q480 350 455 344T406 328T358
309T308 292Q300 281 299 269T297 245Q297 243 297 237T298 229Q314 229 319 226T324 208Q324 194 316 184T308 158ZM328 586Q325 536 322 486T318 386H337Q344 387 362 389T399 393T437 398T462 400Q474 402 495 416T537 449T573 489T588 525Q588 542 571 554T530
575T484 588T451 592H333L328 586V586Z" />
<glyph unicode="C" glyph-name="null" horiz-adv-x="333" d="M14 260Q14 312 28 359T67 450T124 532T192 605Q212 626 235 641T286 657Q301 657 312 653T324 633Q324 622 322 616T308 605Q255 594 210 560T131 478T80 375T61 266Q61 214 73 177T109 113T167 66T244
29H292Q329 29 367 39T444 49Q449 49 455 46T462 34Q462 21 450 12T420 -3T380 -12T338 -18T301 -20T277 -21Q218 -21 170 1T87 61T33 151T14 260Z" />
<glyph unicode="D" glyph-name="null" horiz-adv-x="686" d="M255 17Q255 41 255 63T256 107T257 154T258 208Q267 245 271 288T277 375T280 461T283 540V545Q283 548 283 548T277 550H261Q253 550 223 547T160 537T101 517T75 488Q75 483 78 479T86 471T93 463T97
452Q97 441 89 440T75 438Q65 438 55 442T35 452T20 468T14 488Q14 511 29 527T68 555T122 573T181 585T235 593T277 601Q283 602 285 607T290 618T296 629T308 634Q320 634 324 630T331 621T336 610T346 601Q361 598 373 598Q385 598 398 591Q453 567 502 530T589
446T647 342T669 221Q669 167 648 128T590 62T507 23T409 10Q382 10 359 19T310 28Q310 20 312 12T314 -2V-9Q312 -10 309 -14T301 -22T292 -30T286 -35Q284 -36 281 -38T277 -41Q267 -41 262 -30T255 -12V17ZM298 199Q298 167 301 140T316 94T349 63T407 51Q423
51 450 56T506 71T560 92T597 118Q619 143 624 177T629 243Q629 282 621 313T596 372T558 425T507 477Q493 489 477 503T444 528T407 547T368 555H366Q361 554 356 554T345 552Q339 551 333 550L328 540Q325 483 322 425T314 310Q311 281 305 253T298 199Z" />
<glyph unicode="E" glyph-name="null" horiz-adv-x="521" d="M61 128Q61 156 74 181T102 228T131 270T144 304Q144 306 144 310T139 314H77Q67 324 56 332T36 350T20 372T14 401Q14 415 15 424T23 446Q44 487 71 526T132 597T206 648T297 667Q312 667 330 663T363
650T390 628T401 598Q401 587 396 584T382 580H370Q359 592 351 599T335 610T316 616T292 618Q259 618 229 605T174 570T128 522T92 470Q91 468 87 462T77 448T67 432T63 420Q63 396 74 382T105 355Q108 355 116 354T134 352T150 350T160 349H168Q199 349 233 371T304
421T378 471T451 494Q461 494 473 485T485 467Q485 455 477 447T456 432T431 422T409 414Q406 412 393 405T364 391T336 376T319 368Q313 364 299 355T269 336T239 317T220 304Q205 285 185 267T147 229T117 186T105 133Q105 115 112 100T132 74T161 56T194 49Q213
49 242 62T302 94T359 133T401 166Q410 174 427 195T462 239T498 278T525 295Q533 295 536 293T539 283Q539 276 524 258T486 215T434 165T379 116T333 75T305 53Q271 34 241 23T173 12Q122 12 92 45T61 128Z" />
<glyph unicode="F" glyph-name="null" horiz-adv-x="420" d="M97 25Q97 27 96 37T95 50Q95 78 104 102T115 154Q118 206 121 263T125 372V398Q123 403 115 403Q98 403 82 396T46 388Q44 388 37 388Q30 388 28 389Q20 395 17 398T14 409Q14 423 31 427T69 434T107
438T125 452V531Q125 542 124 544T115 547Q107 547 100 544T86 540Q76 540 65 546T55 565Q57 574 64 580T80 591T98 597T115 601V622Q115 633 113 642T110 662Q110 672 120 675T139 679Q146 679 155 677T165 666V624Q165 622 171 618H173H175Q241 636 306 650T436
678Q456 683 472 688T507 694Q516 694 526 692T536 678Q536 673 509 666T440 650T351 631T262 610T194 586T166 559V471Q166 464 169 463T176 462Q195 462 214 469T249 481Q308 498 370 516T494 534Q504 534 512 530T521 513Q521 507 517 504T508 499T497 496T489
495Q450 487 409 482T326 469T245 449T171 416Q169 401 168 365T165 285T160 193T151 106T135 41T110 15Q105 15 104 17T97 25Z" />
<glyph unicode="G" glyph-name="null" horiz-adv-x="521" d="M14 229Q14 264 23 301T42 372Q45 379 53 396T71 433T90 469T103 494Q112 512 129 535T169 581T217 618T267 633Q274 633 284 630T304 621T320 607T327 590Q327 579 319 571T303 562Q295 562 290 567T277
572Q245 572 217 554T165 506T122 439T89 365T68 293T61 234Q61 208 67 176T87 116T123 69T180 50Q201 50 231 65T294 104T359 158T418 217T460 272T476 312Q476 323 467 323Q439 323 412 317T358 302T302 287T245 280Q238 280 224 280Q211 280 198 283T176 292T166
312Q166 325 182 337T222 359T277 376T335 389T387 397T423 400Q449 400 471 393T520 386Q534 386 548 388T576 391Q582 391 586 391T592 382Q595 372 588 367T569 359T548 353T536 345Q507 296 470 237T387 125T286 38T167 3Q123 3 94 25T47 80T22 153T14 229ZM368
350Q358 350 342 349T319 336H327Q341 336 359 339T392 349Q389 350 380 350Q371 350 368 350Z" />
<glyph unicode="H" glyph-name="null" horiz-adv-x="450" d="M286 42Q288 56 293 61T298 80V82Q298 94 298 121T297 179T296 237T295 277Q294 282 291 287T283 292Q268 292 248 287T206 273T166 256T133 240Q133 236 133 226T132 205T131 185T129 171Q128 161
126 138T119 90T104 47T80 28Q68 28 65 33T61 51Q61 70 68 91T77 133Q77 136 78 141T80 153T81 164T82 171Q82 174 82 182Q82 190 82 199T81 216Q81 224 81 228H28Q18 228 16 234T14 245Q14 265 24 270T47 277T74 281T92 298Q92 302 92 312Q92 323 92 334T93 356Q93
366 93 371Q93 407 91 441T88 510Q88 528 94 537T120 546Q135 546 141 532T148 504Q148 496 148 489T144 470V298Q153 298 176 302T223 314T267 330T286 348Q286 373 281 396T272 443Q272 444 271 452T270 470T268 491T267 507Q265 555 255 602T244 694Q244 711
254 715T278 720Q286 720 295 716T305 701Q315 617 318 535T333 368Q334 368 337 364T340 359H344Q372 359 400 372T455 401T507 430T557 444Q563 444 568 438T572 423Q569 409 551 397T508 375T453 355T398 336T357 316T340 295Q340 234 345 171T350 46Q350 32
339 16T312 0Q307 0 302 5T293 18T287 32T286 42Z" />
<glyph unicode="I" glyph-name="null" horiz-adv-x="666" d="M34 -24Q34 -5 50 4T88 17T131 21Q153 21 163 21Q208 26 247 34T333 52Q334 52 339 57T346 62Q353 63 369 67T392 72L397 76V83Q397 86 397 88T398 93Q398 196 390 298T382 504Q382 511 383 516T392
527Q387 530 385 532T379 534Q369 534 348 530T303 519T258 506T226 495Q200 486 174 473T118 452H113Q102 452 98 459T93 475Q93 488 103 494T127 503T155 506T176 509Q188 513 195 517T208 524T221 531T240 537Q284 546 330 557T422 577T515 592T608 598Q617
598 634 598Q652 598 668 595T697 584T710 558Q710 553 709 550T701 546Q696 546 691 550T679 559T664 569T646 573Q635 573 630 573T621 572Q617 572 613 572T597 571Q586 571 576 571T555 570Q549 570 524 566T472 556T422 542T400 529Q400 522 410 518T420 506Q420
504 418 499T414 493V476V458Q415 453 416 432T417 385T419 338T420 310Q422 230 429 155Q430 148 430 137T432 116T433 98T434 90L436 80Q436 78 443 78Q450 78 451 78Q470 78 491 80T535 86T578 92T618 95V87Q578 79 530 67T443 34Q438 31 436 25T432 13T427
2T414 -3Q406 -3 402 5T397 20H384Q342 20 302 11T221 -11T139 -32T53 -42Q48 -42 41 -37T34 -24Z" />
<glyph unicode="J" glyph-name="null" horiz-adv-x="471" d="M14 -371Q14 -329 25 -268T54 -143T97 -23T148 67Q163 86 180 102T215 133T250 165T281 199Q282 200 282 205T283 217Q283 223 283 228Q283 233 283 235Q283 261 279 306T268 399T256 492T246 562Q244
570 241 571T232 572Q215 572 197 563T162 542T132 521T112 511Q101 511 94 521T87 541Q87 547 87 550T90 558Q105 570 125 581T167 602T212 617T255 623Q270 623 278 613T290 589T294 561T297 536Q297 522 298 498T301 444T305 382T310 320T315 265T319 226Q320
221 322 220T328 219H333Q342 223 358 229T392 242T428 252T462 257Q476 257 490 249T504 226Q504 218 501 210T489 201Q481 201 477 208T462 215Q447 215 425 210T380 196T342 174T323 145Q324 95 325 41T325 -69T315 -180T292 -286T248 -384T180 -467Q163 -483
139 -496T90 -509Q65 -509 50 -494T27 -458T17 -413T14 -371ZM46 -345Q46 -359 47 -381T53 -423T70 -458T104 -473Q127 -473 148 -459T188 -421T222 -369T250 -312T270 -259T281 -218Q282 -211 284 -198T289 -171T293 -148T295 -136V49Q293 70 291 92T286 137Q284
138 280 138Q263 138 252 125T231 104Q186 67 151 14T93 -99T58 -223T46 -345Z" />
<glyph unicode="K" glyph-name="null" horiz-adv-x="580" d="M23 1Q23 3 22 11T21 21Q21 49 25 77T36 134T46 189T51 245Q51 255 45 261T33 273T20 285T14 304Q14 313 20 319T34 330T51 341T64 353Q69 388 72 423T75 495V531Q64 552 62 579T51 629Q49 634 48 637T46
646Q46 657 55 663T75 669Q89 669 97 648T109 600T114 548T115 513Q115 479 109 447T103 383Q103 381 104 377T107 373Q112 373 127 383T163 408T207 443T252 479T290 511T314 531Q325 541 349 567T400 620T448 667T479 688Q487 688 495 683T504 668Q504 663 503
660T497 652Q448 595 388 544T268 444Q228 412 187 384T105 324Q104 322 104 321T103 318Q103 308 117 303T150 296T184 293T203 292Q290 292 370 313T531 359Q541 363 553 369T579 380T604 389T626 393Q634 393 638 383T643 368Q643 363 623 354T573 333T507 310T439
288T384 272T356 264Q317 256 278 250T197 244Q174 244 152 247T105 251H97Q91 238 88 214T83 161T78 102T72 47T60 7T40 -9Q35 -9 31 -8T23 1Z" />
<glyph unicode="L" glyph-name="null" horiz-adv-x="306" d="M14 25Q14 26 14 30T16 38T17 47T18 52Q31 145 41 239T51 424Q51 467 49 508T46 590Q46 606 54 612T75 618Q80 618 91 616T103 603V489Q94 460 91 430T86 368T84 306Q84 275 82 245Q80 210 78 172T75
95Q75 78 78 71T89 60T107 56T133 49Q170 54 201 59T267 76H268Q274 76 283 71T292 61Q292 52 279 44T244 27T198 13T148 1T105 -6T76 -9Q70 -9 60 -8T39 -4T22 7T14 25Z" />
<glyph unicode="M" glyph-name="null" horiz-adv-x="803" d="M618 368V524Q618 533 617 536T609 539Q605 539 601 535T592 526T583 515T576 507Q547 462 522 420T471 330Q465 321 459 303T445 266T427 233T401 219Q392 219 388 225T382 239T381 255T382 268Q382
299 386 329T394 391T403 452T407 514Q407 517 407 528T407 552T402 575T391 586Q375 586 355 562T315 506T281 443T263 397Q251 340 247 286T233 178T206 74T148 -25Q148 -26 144 -31T134 -43T120 -54T107 -59Q97 -59 92 -49T82 -29Q82 -26 82 -14T81 0Q81 48
96 100T135 206T183 310T228 405V429Q228 459 221 503T201 592T170 679T129 746Q103 774 80 790T23 820Q17 822 16 829T14 842Q14 863 34 863Q50 863 65 853T92 834Q138 798 164 759T206 677T229 586T249 483Q252 473 257 473Q259 473 267 486T287 518T314 559T345
599T377 630T407 640Q423 638 431 625T443 596T447 562Q447 546 447 536Q447 509 444 483T436 432T428 383T424 333Q425 333 436 350T464 393T502 452T545 514T586 568T618 603H633Q661 603 661 566V376Q661 360 661 351T662 337T664 329T666 319Q668 287 680 238T714
144Q724 115 739 95T767 55Q771 50 781 45T800 36Q805 40 810 39T819 41Q824 40 829 42T840 45V46H842Q849 50 851 55T854 63Q855 62 856 60T857 52Q855 37 842 24T810 5T773 1T742 21Q697 85 668 156T624 304Q618 320 618 339V340V355V368ZM124 31Q124 28 124
23Q124 18 129 17Q152 35 170 72T201 152T221 237T228 307V327Q221 322 211 301T189 250T166 185T145 119T130 64T124 31ZM884 473Q885 475 885 476H886L884 473Z" />
<glyph unicode="N" glyph-name="null" horiz-adv-x="494" d="M11 -33Q11 5 20 50V61Q20 63 21 66Q21 74 21 93Q21 112 21 136Q21 161 21 187T23 238Q26 294 27 339T28 403V460Q28 472 26 486T21 511Q21 514 21 518T20 525Q18 541 17 555T15 582Q15 605 33 618T66
631H78Q118 581 150 529T212 421L232 388Q249 359 267 329T305 267H304Q306 262 309 256T318 244L321 242Q330 232 336 225T349 217H368V506Q371 511 372 521T375 546Q377 563 379 583T386 620T396 649T411 661Q418 661 419 659T420 644Q420 612 409 570Q407 547
405 527T403 483Q403 473 404 465T407 450Q408 442 408 435Q408 429 408 423Q408 396 405 371Q403 355 402 341T401 312Q401 281 406 254T418 203Q424 177 428 152T433 104Q433 95 433 81T430 52T425 28T416 18Q411 18 401 31T376 65T344 113T311 167T279 221T253
267Q248 273 245 278T239 288Q236 292 234 296Q223 314 211 334T188 372Q174 391 163 407T141 443L131 436Q129 442 122 457T111 482T111 490T136 458L137 455Q136 457 134 460Q130 465 129 471Q121 488 113 504T94 520H76V392L66 381Q64 354 64 325Q64 297 63
268Q63 248 63 228T62 188V154Q61 116 61 74Q61 32 59 -2V0Q51 -11 41 -25T20 -40Q18 -40 15 -38T11 -33Z" />
<glyph unicode="O" glyph-name="null" horiz-adv-x="634" d="M14 257Q14 269 16 295T23 356T33 426T45 494T58 548T71 576L139 646Q162 657 181 673T220 705T262 731T312 742Q333 742 343 732T350 698Q484 683 551 601T618 386Q618 340 601 294T555 205T486 125T402
60T309 17T215 1Q163 1 125 23T63 81T26 163T14 257ZM166 51Q178 46 196 47T223 49Q283 49 346 76T462 148T548 251T582 372Q582 503 520 574T319 646H267Q253 643 235 639T202 629Q181 618 159 588T118 522T89 447T77 382Q77 374 79 369T82 356Q82 350 79 346T72
338T65 330T61 320V276Q61 238 66 207T84 149T117 98T166 51Z" />
<glyph unicode="P" glyph-name="null" horiz-adv-x="407" d="M14 -252Q14 -171 25 -90T51 72Q55 94 61 117T74 163T84 209T88 257Q88 264 80 268T62 276T44 287T35 306Q35 314 38 325T46 347T60 364T80 371Q88 371 88 360Q88 349 85 339T82 318Q91 318 98 317T112
324Q115 335 121 352T133 387T143 423T148 450Q148 493 133 543T103 634Q98 645 95 649T91 655T89 660T88 669Q88 684 95 689T118 694Q130 694 137 682T150 651T158 611T163 571T169 540T179 527Q181 527 191 543T218 582T258 633T308 684T367 724T432 740Q463
740 469 725T476 681Q476 640 460 599T418 520T360 449T298 389Q278 372 250 353T202 310V260Q202 169 211 81T220 -97Q220 -114 219 -150T214 -230T201 -322T177 -407T140 -471T87 -496Q65 -496 52 -473T31 -420T22 -361T18 -318Q18 -311 17 -300T16 -278T15 -260T14
-252ZM51 -336Q52 -345 55 -363T63 -398T76 -429T98 -443Q114 -443 126 -429T147 -392T162 -343T172 -291T180 -246T186 -217V-112Q186 -14 179 81T166 273Q171 285 164 286T154 288Q135 288 123 266T104 215T94 156T88 113Q71 16 61 -77T50 -268Q50 -272 50 -281Q50
-291 50 -302Q50 -313 50 -323T51 -336ZM144 339Q144 334 148 334Q155 338 156 340T157 349Q157 354 157 356Q157 359 154 360Q147 358 146 349T144 339ZM192 371Q199 367 201 367H202Q236 392 276 425T352 497T410 579T434 669V688Q433 695 425 695T414 694Q373
694 333 669T261 607T209 524T189 440Q189 422 189 407T192 371Z" />
<glyph unicode="Q" glyph-name="null" horiz-adv-x="634" d="M440 59Q438 59 438 59T436 60Q427 60 414 53T386 35T360 16T340 2Q314 -13 281 -20T215 -27Q163 -27 125 -5T63 54T26 136T14 229Q14 241 16 267T23 328T33 398T45 467T58 521T71 550L139 620Q162
630 181 646T220 678T262 705T312 716Q333 716 343 704T350 669Q484 656 551 575T618 359Q618 316 608 281T579 214T537 153T484 94V86Q490 77 500 65T520 39T537 11T545 -17Q545 -23 541 -29T529 -35Q518 -35 506 -23T482 6T460 37T443 59H440ZM166 25Q178 20
196 20Q214 20 223 20Q278 20 322 39T414 86Q416 87 416 90Q416 93 416 94Q416 110 407 124T386 152T365 180T355 211Q355 219 360 224T376 229Q390 229 399 214T417 180T434 147T455 131Q464 131 469 135T479 145Q522 188 552 236T582 346Q582 477 520 548T319
620H267Q253 616 235 613T202 602Q181 591 159 562T118 495T89 421T77 355Q77 347 79 342T82 329Q82 323 79 319T72 310T65 302T61 293V249Q61 211 66 180T84 122T117 72T166 25Z" />
<glyph unicode="R" glyph-name="null" horiz-adv-x="494" d="M281 183Q278 186 270 193T254 208T238 224T228 233Q224 236 216 243T199 257T182 270T171 280Q166 284 157 290T138 300T119 308T104 312Q94 312 91 288T85 228T82 149T78 70T66 9T43 -15Q31 -15 25
-5T17 18T14 44Q14 57 14 64Q14 117 22 169T39 272T56 376T64 481Q64 490 63 503T61 529T58 555T55 576V577Q55 593 60 596T77 600Q97 600 101 589T106 560Q106 549 105 537T103 513V503Q115 511 121 527T139 557Q158 581 180 609T230 662T288 703T355 719Q357
719 368 719T382 716Q402 702 405 692T409 660Q409 629 398 591T369 516T328 448T281 397Q263 381 236 364T192 327Q261 260 325 191T455 53Q462 46 473 40T495 26T513 10T521 -10Q521 -14 520 -17T514 -20Q510 -20 496 -10T462 17T420 52T377 90T341 123T319 145Q311
154 302 167T281 183ZM103 382Q115 374 123 371T144 368Q170 368 197 381T249 417T296 469T334 528T360 589T370 643Q370 645 369 653T368 663Q367 672 360 673T346 675Q319 675 291 661T236 623T185 568T143 505T114 442T103 386V382V382Z" />
<glyph unicode="S" glyph-name="null" horiz-adv-x="479" d="M409 320Q413 319 418 315Q420 309 420 303Q419 298 417 296T412 292Q389 278 374 266T359 242Q359 222 369 205T379 167Q379 120 355 88T294 35T214 6T131 -3Q122 -3 103 -2T64 5T29 19T14 45Q14 63
34 84T84 128T148 170T213 208T263 238T283 257Q283 267 264 284T215 323T151 372T87 428T38 489T18 553Q18 578 32 602T71 647T126 687T189 719T251 740T306 748Q315 748 326 747T346 742T363 731T370 713Q370 707 369 698T359 688Q351 688 345 694T333 706H307Q291
706 268 700T218 682T165 656T118 625T84 593T71 562Q71 545 77 524T92 489Q97 484 110 471T138 443T166 415T186 398Q192 392 211 374T254 336T298 301T327 286Q336 286 337 286T346 292Q349 294 361 300T388 315Q392 314 397 315L409 320ZM82 49Q103 43 120 43T157
42Q184 42 216 48T276 69T322 107T341 163Q341 170 340 180T336 199T327 214T312 221Q302 221 281 211T234 183T180 146T129 108T92 74T77 52Q77 49 82 49Z" />
<glyph unicode="T" glyph-name="null" horiz-adv-x="494" d="M271 43Q271 44 271 48T270 58Q270 63 271 67T277 72Q282 72 286 67T296 62H297L307 90Q308 127 311 177T318 283T326 400T333 516T339 623T341 711Q317 711 272 702T177 678T84 648T20 620V615Q20
608 26 605T39 600T53 594T59 583Q59 578 58 577T52 573H29Q20 573 -4 573Q-29 573 -54 575T-99 584T-119 603Q-119 622 -85 639T2 673T114 703T227 731T313 755T348 776V859Q348 865 352 870T362 880T374 886T384 888Q394 888 401 885T409 868V788Q435 788 463
796T514 809Q579 822 646 829T780 837H833Q843 834 855 829T876 818V809Q876 802 871 793T857 784Q846 784 837 792T815 800Q803 800 770 798T692 790T598 778T507 762T435 741T399 715Q394 706 393 693T391 666T390 637Q390 624 389 615Q386 580 381 546T371 476T361
406T357 337Q357 324 357 298Q357 273 357 241T356 174Q356 139 356 107T355 49Q355 24 355 12V-17Q350 -25 343 -26T327 -27Q298 -27 285 -5T271 43Z" />
<glyph unicode="U" glyph-name="null" horiz-adv-x="634" d="M62 124Q64 137 70 146T78 168Q82 192 85 231T91 311T97 391T103 455Q97 471 97 486Q97 502 99 520Q99 521 101 530T104 545Q111 551 121 558T141 566Q146 566 150 561T158 550T164 536T166 524Q165
519 163 503T158 464T152 417T146 369T141 330T139 308Q138 298 136 274T130 224T124 175T120 144Q119 133 118 112T120 70T131 34T157 18Q179 18 205 39T258 93T311 166T358 245T396 316T420 366Q431 392 438 419T460 476L485 600Q486 606 493 612T507 618Q529
618 532 606T534 576Q526 527 512 481T494 384Q492 372 489 342T485 275T486 198T495 125T515 71T550 49Q561 49 571 55T590 68T608 81T628 87H644Q646 86 648 82T651 76Q648 58 637 47T611 29T578 20T547 17Q517 17 497 32T464 73T445 129T436 193T433 254T435
305H433Q430 305 417 280T382 218T332 137T272 56T206 -6T137 -31Q113 -31 98 -14T73 28T62 79T62 124Z" />
<glyph unicode="V" glyph-name="null" horiz-adv-x="391" d="M14 473Q14 481 23 488T40 496Q51 496 67 467T100 395T135 302T168 208T196 136T215 107Q221 107 230 137T249 216T272 329T299 458T328 587T361 699T395 779T432 809Q440 809 443 808T447 798Q447
796 437 776T415 732T391 684T379 652Q349 543 324 431T277 205Q275 195 274 175T272 131T268 81T259 34T242 -1T215 -15Q209 -15 205 -8T199 2Q182 78 153 151T97 294Q90 311 76 335T49 384T25 433T14 473Z" />
<glyph unicode="W" glyph-name="null" horiz-adv-x="550" d="M14 473Q14 484 25 489T45 494Q48 494 54 494T61 488Q63 413 70 339T75 189Q86 160 91 132T105 75Q109 66 112 65T123 63Q125 63 128 64T133 71Q149 115 163 159T189 249Q192 262 192 278Q192 294 192
310Q192 327 195 342T207 368V551Q205 554 204 561T202 572Q202 584 210 587T228 590Q238 590 245 580T257 556T264 528T267 507Q267 505 266 499T263 488V435Q263 392 268 351T282 268T300 186T319 103Q323 86 334 73T362 60Q376 60 387 75T408 115T425 168T438
225T448 276T455 312Q454 348 456 383T461 454T467 524T470 597Q470 598 470 605T464 612Q457 604 451 598T433 591V681Q433 687 437 692T448 701T460 707T471 710Q484 710 490 700T497 675T498 647T497 623V580Q497 574 497 551T496 500T495 449T494 419Q494 404
492 368T484 286T469 193T446 105T412 40T367 14Q338 14 320 31T289 76T270 138T257 207T244 270T226 318Q225 304 221 275T211 211T196 139T175 70T148 20T115 0Q95 0 81 16T57 58T42 115T33 175T29 229T28 267Q28 278 27 298T25 338T24 376T23 397Q22 399 21
410T19 433T16 456T14 470V473V473Z" />
<glyph unicode="X" glyph-name="null" horiz-adv-x="486" d="M43 -75Q46 -44 61 -7T95 68T135 142T171 208Q177 220 185 237T200 273T212 309T218 339Q220 354 212 375T189 419T157 466T125 512T101 552T92 582Q93 596 105 601T129 605Q144 605 161 580T196 521T229
457T257 416Q270 434 282 465T309 528T343 581T388 603Q399 603 405 596T409 577Q409 570 403 562T387 546T369 529T356 511Q350 504 340 485T318 444T298 402T288 373Q286 359 301 329T341 261T393 179T446 97T485 26T499 -21Q498 -30 495 -32T483 -35Q475 -35
468 -27T454 -7T444 13T438 25L305 235Q299 249 287 262T268 283Q267 283 266 283T263 284Q254 284 241 264T211 212T178 144T149 73T127 14T118 -20Q119 -20 122 -19T128 -18T135 -18T138 -24Q137 -34 129 -46T110 -69T86 -87T63 -94Q55 -94 49 -89T43 -75Z" />
<glyph unicode="Y" glyph-name="null" horiz-adv-x="521" d="M308 -255Q308 -206 322 -162T346 -72Q362 3 379 80T397 232H333Q327 232 301 252T240 302T165 368T92 436T36 493T14 525Q14 536 22 546T42 557Q43 557 46 557Q50 557 51 555Q55 550 67 538T94 511T120
485T138 468Q154 451 181 419T239 354T304 297T368 273Q370 273 375 275T387 279T399 283T407 288Q410 294 412 305T416 330T419 353T420 368Q421 382 428 421T447 510T470 616T495 717T518 793T536 823H570Q570 810 566 785T556 733T541 682T525 647Q524 646 519
643T511 637Q506 631 507 623T507 605Q496 527 481 449T450 293T419 137T392 -21Q389 -42 383 -64T370 -108T360 -154T355 -199Q355 -210 360 -216T366 -234Q366 -242 363 -251T355 -269T343 -282T327 -288Q314 -288 311 -276T308 -255Z" />
<glyph unicode="Z" glyph-name="null" horiz-adv-x="463" d="M40 34Q40 51 62 84T117 160T188 247T259 335T314 412T336 467H244Q224 459 199 455T147 447T94 441T46 435Q44 434 43 434H40Q31 434 23 440T14 454Q14 467 37 477T97 494T176 506T258 514T328 518T370
519Q379 519 390 514T401 497Q401 476 384 441T339 366T278 282T214 200T156 131T118 86Q114 80 107 70T99 52Q99 52 101 50Q102 49 104 49Q106 49 111 49T123 47T133 45T140 43H144Q178 43 221 54T309 77T397 101T475 112Q483 112 491 110T507 106V104Q507 101
481 92T413 70T324 43T232 18T156 -1T114 -9Q104 -9 91 -7T67 0T48 13T40 34Z" />
<glyph unicode="[" glyph-name="null" horiz-adv-x="407" d="M327 853Q298 863 272 867T226 872Q210 872 203 870T192 863L190 819V642Q190 428 199 255T228 -36Q229 -53 235 -58T252 -64Q261 -64 272 -62T295 -52Q319 -36 320 -36Q328 -36 333 -43T339 -61Q339
-69 331 -76T305 -92Q289 -100 276 -102T252 -105Q223 -105 207 -92T188 -52Q188 -51 181 60T160 375Q155 484 152 575T149 742V768Q149 803 149 823Q149 843 150 848Q157 900 183 909Q190 913 201 914T226 915Q241 915 266 911T320 896Q335 890 342 885T350 871Q350
853 330 853H327Z" />
<glyph unicode="\" glyph-name="null" horiz-adv-x="464" d="M104 793V801Q104 822 120 822Q139 822 140 808L168 652L238 376Q268 294 300 208T362 36V33Q362 11 345 11Q330 11 324 23V21Q302 79 280 139T234 257Q212 332 190 409T145 562L104 793Z" />
<glyph unicode="]" glyph-name="null" horiz-adv-x="509" d="M358 28Q357 18 356 1T350 -42V-41Q343 -69 330 -83T293 -98Q280 -98 258 -92T205 -72V-73Q200 -68 197 -64T194 -51Q194 -31 215 -31Q218 -31 221 -32T229 -34H228Q280 -59 293 -59L298 -55Q306 -51
306 -42L327 333Q334 448 337 541T340 707V749Q340 760 340 783T337 846Q336 869 319 878T266 888H257L145 877Q127 877 127 897Q127 905 131 911T140 919Q185 927 216 929T267 932Q367 932 381 853Q382 838 382 799Q382 761 382 698V633L358 28Z" />
<glyph unicode="^" glyph-name="null" horiz-adv-x="494" d="M341 527Q323 527 323 539L283 877L266 844L218 716L183 580Q181 566 178 552T173 525Q171 521 165 516T151 510Q133 510 133 523V539Q139 572 147 604T160 668L208 809Q211 816 220 838T244 893Q265
928 286 928Q318 928 324 868L355 590Q357 576 358 565T360 547Q360 539 356 533T341 527Z" />
<glyph unicode="_" glyph-name="null" horiz-adv-x="550" d="M23 -5Q16 -8 13 -3T10 12Q10 30 23 33L565 55Q569 58 570 58T572 59Q580 59 585 53T590 35Q590 17 580 17L23 -5Z" />
<glyph unicode="`" glyph-name="null" horiz-adv-x="183" d="M168 528Q172 523 170 516T160 504Q145 492 133 507L80 576Q64 598 51 612T28 634L31 635Q1 682 17 694Q22 697 29 697T41 695L88 634Q95 623 104 612T118 597L168 528V528ZM28 634L21 629Q14 637 17
639T28 634Z" />
<glyph unicode="a" glyph-name="null" horiz-adv-x="360" d="M90 10Q75 10 66 19T52 41T44 68T42 93Q42 144 56 201T98 307T171 388T276 420Q279 420 284 417T296 410T306 401T312 392Q313 388 311 373T304 339T296 305T289 283Q289 275 289 256T287 215T286 175T284
149V133Q284 127 284 115T287 89T294 65T308 55Q317 55 321 63T334 72Q342 72 344 66T346 51Q346 31 330 16T293 1Q278 1 269 13T254 41T246 73T243 97Q243 102 243 119Q243 136 243 155Q243 175 243 192Q243 209 243 214Q243 219 243 231T240 244H234Q232 237
229 230Q227 224 225 218T220 208Q213 188 201 155T173 89T136 34T90 10ZM97 76Q97 73 98 68T104 62Q114 62 128 82T156 132T185 199T210 270T228 330T235 367Q226 367 219 364T202 355Q146 310 121 254T95 128Q95 125 95 117Q95 109 95 101Q95 93 95 86T97 76Z"
/>
<glyph unicode="b" glyph-name="null" horiz-adv-x="450" d="M243 -80Q217 -80 198 -66T165 -29T140 19T121 70T107 113T94 138Q92 168 78 197Q81 203 81 208Q81 253 74 295T66 382Q66 385 66 393Q66 401 66 409Q66 418 66 425T67 435Q73 450 77 480T86 548T99
625T119 696T150 749T197 770Q224 770 234 753T252 713Q252 710 252 702Q252 694 252 686T253 669Q253 662 253 660Q253 604 246 544T223 426T185 312T131 211V182Q131 168 135 147T146 101T164 53T186 10T213 -22T244 -35Q259 -35 274 -23T300 8T319 45T327 76V173Q327
203 311 220T275 249T239 268T223 289Q223 303 231 309T252 315Q275 315 296 309T340 303Q366 303 396 305T451 315Q460 318 465 321T476 328T487 334T504 336Q515 336 522 329T534 312Q514 286 485 278T427 268T374 263T340 245Q351 210 359 177T368 104Q368 81
359 49T334 -11T294 -60T243 -80ZM107 266Q111 257 115 257Q123 257 128 266Q150 309 168 351T197 440Q203 473 205 510T219 577V679Q219 689 215 702T200 716Q181 716 166 695T140 642T121 572T108 498T101 435T99 399Q99 366 102 332T107 266Z" />
<glyph unicode="c" glyph-name="null" horiz-adv-x="376" d="M15 137Q15 177 28 229T69 327T136 406T229 438Q247 438 265 431T284 403Q284 395 284 390T272 384Q259 384 249 391T221 398Q197 398 176 385T137 350T103 302T78 248T61 197T55 156Q55 137 59 116T74
76T102 47T145 35Q178 35 206 49T259 86T305 133T343 181T373 217T397 232Q400 232 404 227T408 219Q408 218 407 213T403 207Q396 196 383 182T355 151T328 118T312 90Q297 75 279 59T239 29T194 6T144 -3Q112 -3 88 9T48 40T23 85T15 137Z" />
<glyph unicode="d" glyph-name="null" horiz-adv-x="536" d="M292 179Q290 181 287 181T281 182H277Q262 165 241 137T195 83T144 37T94 17Q62 17 38 36T14 90Q14 124 32 157T79 219T139 270T200 307Q207 311 217 313T239 318T259 326T272 340Q277 392 281 445T295
550Q297 560 303 584T319 637T340 699T365 758T392 802T419 819Q438 819 448 811T464 790T469 761T470 729Q470 687 462 647T442 566T417 487T392 409Q385 389 376 369T366 329V327L386 315Q388 315 388 310Q388 306 384 295T372 284H340Q338 284 336 275T331 255T328
233T327 218Q327 196 340 163T373 100T419 47T467 25Q478 25 488 33T507 50T524 68T540 76Q548 76 550 71T553 61V52Q545 43 535 32T514 12T489 -4T462 -11Q424 -11 397 7T350 54T316 115T292 179ZM75 104Q75 90 78 78T99 66Q113 66 126 73T148 90Q152 95 164 107T190
134T216 161T234 179Q251 196 264 216T277 261Q277 272 276 276T263 280Q236 280 204 262T143 217T95 160T75 104ZM312 348Q312 342 315 341T323 339Q335 339 348 363T374 424T398 506T417 592T431 666T436 711Q436 714 436 720T437 734T435 747T429 755Q396 725
374 682T338 589T318 489T312 397V348V348Z" />
<glyph unicode="e" glyph-name="null" horiz-adv-x="375" d="M59 128Q54 130 53 131T50 133Q39 133 30 130T10 125Q0 134 -6 142T-10 158Q17 158 32 165T56 186T71 216T86 253Q96 278 109 304T140 353T181 390T235 405Q257 405 275 394T293 359Q293 332 279 309T242
266T195 227T148 192T112 160T97 129Q97 109 103 87T122 46T152 15T194 3Q220 3 242 19T282 61T315 116T341 170T358 212T368 229Q379 229 380 225T381 212Q381 177 365 134T322 53T258 -10T182 -36Q151 -36 128 -20T90 20T68 74T59 128ZM229 355Q207 355 186 340T148
304T121 257T110 211Q123 211 146 227T193 264T233 307T251 341Q251 345 251 350T245 355H229V355Z" />
<glyph unicode="f" glyph-name="null" horiz-adv-x="426" d="M133 -104Q133 -38 136 27T139 157V175Q131 190 111 193T71 197T34 204T18 229Q18 240 25 247T43 255Q65 255 83 248T124 240Q126 240 132 240Q138 240 139 242L144 244Q144 295 149 345T160 446T170
545T175 646V701Q172 705 172 708T171 716Q171 727 175 740T192 753Q204 753 209 745T216 725T218 701T217 681Q217 630 211 579T199 477T186 375T180 273V244Q181 239 185 239T192 240Q213 240 240 248T294 267T346 289T392 308H393Q394 308 395 309Q396 309 397
310Q405 310 408 303T411 292Q411 280 396 270T357 250T307 233T255 218T213 205T192 192Q249 157 288 121T352 43T387 -51T398 -171Q398 -200 390 -238T365 -311T320 -368T255 -392Q228 -392 208 -376T175 -333T153 -275T141 -210T135 -150T133 -104ZM166 -15Q166
-28 166 -57Q166 -87 168 -124T175 -200T191 -271T219 -325T261 -346Q293 -346 313 -323T346 -269T362 -203T367 -148Q367 -106 361 -67T341 8T303 73T242 129Q230 137 215 147T186 157H175Q169 138 167 116T164 70Q164 48 165 26T166 -15Z" />
<glyph unicode="g" glyph-name="null" horiz-adv-x="449" d="M119 -334Q119 -277 133 -221T169 -111T220 -6T277 93Q283 102 297 119T327 153T354 187T366 211Q366 217 359 219T344 222T328 222T319 221Q280 221 248 203T187 163T129 123T66 105Q64 105 56 105Q48
105 46 106Q27 120 21 138T14 179Q14 188 19 199T30 223T44 245T55 263Q74 292 100 314T157 352T221 375T288 383Q295 383 304 381T314 367Q314 357 308 352T294 345T278 343T263 341Q259 341 249 339T227 333T204 327T189 323Q174 310 152 294T111 258T77 218T63
175Q63 160 77 160Q96 160 123 173T178 205T233 241T277 268Q291 270 302 271T327 272Q338 272 348 268T369 258T388 249T408 244H414Q431 254 450 263T489 281Q492 281 492 281T494 280L499 276Q504 266 504 252Q499 247 497 244T493 235Q469 230 452 221T434
202Q432 190 434 176T439 147T444 118T447 90Q447 24 434 -35T407 -156L392 -175Q382 -201 363 -244T316 -330T257 -402T188 -433Q168 -433 155 -424T134 -400T123 -368T119 -334ZM157 -345Q157 -348 159 -355T165 -371T173 -385T182 -391Q191 -391 206 -381T231
-363Q271 -327 306 -274T366 -160T405 -39T420 76Q420 81 419 97T414 131T405 162T393 176L392 175Q390 173 381 166T368 157Q332 125 295 67T226 -59T176 -194T156 -310Q156 -314 156 -327T157 -345Z" />
<glyph unicode="h" glyph-name="null" horiz-adv-x="517" d="M94 216Q85 207 75 197T56 179Q53 179 53 180Q48 181 43 180T33 174Q29 188 23 196Q37 211 50 225T75 256Q82 263 86 267T91 274T93 282T94 294Q94 339 90 382T86 468Q86 485 87 515T92 580T103 651T123
717T155 766T201 785Q231 785 249 770T276 733T288 685T291 637Q291 635 291 629Q291 624 291 618Q291 612 291 607T290 600Q272 556 261 512T232 423Q222 403 206 382T175 338T149 293T138 248Q138 248 138 242T139 229T141 213T143 200Q144 194 146 174T152 132T160
93T170 75Q172 75 177 91T191 132T213 186T242 239T279 280T325 297Q346 297 359 282T382 243T396 193T406 143T415 105T426 89H430L476 133Q476 134 484 134Q492 134 494 132T497 121Q497 109 490 95T471 67T445 44T417 35Q398 35 387 51T369 90T359 142T351 193T340
233T321 249Q297 249 281 229T253 180T233 115T216 51T195 1T166 -19Q152 -19 143 -2T126 42T115 98T107 155T102 198T96 216H94V216ZM128 351Q130 346 131 344T137 341Q139 341 143 347Q172 391 193 432T232 521Q234 529 237 540T244 563L253 590Q253 590 253
596Q253 602 253 609T254 624Q254 632 254 637Q254 640 254 646Q254 653 254 660T253 673Q253 680 253 682Q249 698 240 716T213 739Q192 741 177 718T151 662T135 599T128 553Q128 551 128 539T127 511T126 480T125 457V437Q125 432 125 420T126 395T127 369T128
351Z" />
<glyph unicode="i" glyph-name="null" horiz-adv-x="173" d="M61 -9Q61 -5 61 12Q61 29 61 48T60 84Q60 101 60 105V176Q60 182 60 201Q60 221 60 246Q60 272 61 299T65 350T73 388T87 403Q92 403 98 401T106 393V371Q106 351 106 321Q106 291 106 255T105 181T103
107T101 40T99 -11Q97 -18 92 -29T77 -40Q66 -40 64 -28T61 -9ZM73 678Q73 688 78 695T94 702Q108 702 118 694T140 678V667Q140 659 139 654T127 649Q119 649 110 649T93 653T79 662T73 678Z" />
<glyph unicode="j" glyph-name="null" horiz-adv-x="355" d="M-131 -441Q-131 -374 -120 -306T-85 -174T-21 -56T76 39Q87 47 108 55T152 72T194 88T219 105V128Q219 168 210 212T191 296Q185 321 175 345T165 392Q165 406 171 414T191 422Q207 422 215 410T228
380T234 344T238 315Q239 310 241 288T247 240T253 191T257 162Q257 159 258 154T260 142T263 129T266 120H276Q288 120 299 123T321 127Q328 127 332 125T336 114Q336 103 326 99T304 93T281 88T271 74Q271 0 277 -70T284 -216V-304Q277 -334 270 -374T253 -457T227
-541T188 -616T131 -669T52 -689Q8 -689 -26 -665T-83 -603T-118 -522T-131 -441ZM-104 -402Q-104 -432 -94 -474T-65 -556T-18 -623T46 -651Q89 -651 120 -628T174 -569T210 -486T232 -394T243 -305T246 -232Q246 -163 244 -95T233 42Q232 50 230 58T219 66Q212
66 186 54T130 25T72 -9T34 -35Q1 -69 -24 -113T-68 -206T-95 -305T-104 -402ZM90 550Q90 563 99 568T120 573Q127 573 136 571T145 559Q145 549 134 535T112 521Q101 521 96 530T90 550Z" />
<glyph unicode="k" glyph-name="null" horiz-adv-x="391" d="M35 -160Q35 -130 38 -99T46 -38Q47 -29 47 -10T48 35T49 87Q49 115 49 140T50 185Q50 205 50 215Q50 217 50 232T51 268Q51 288 51 308Q51 329 51 341Q51 422 47 501T36 662Q35 679 32 697T24 733T17
769T14 805Q14 819 24 827T49 835Q59 835 65 825T76 800T81 773T82 753Q82 738 80 725T77 696Q77 647 87 597T97 493Q97 462 93 432T88 369Q88 354 90 339T92 310V301Q92 300 90 297T88 292Q88 287 92 287Q94 289 100 295T113 307T125 319T133 327Q134 329 139
335T150 347T162 360T171 369Q176 376 188 390T215 422T246 458T277 491T302 516T315 526H318Q320 525 324 520T330 513Q332 511 332 504T333 493Q333 486 323 471T297 435T262 393T225 351T192 313T171 287Q170 286 166 281T160 273Q158 272 158 268T157 263Q157
253 181 235T237 199T298 167T337 149Q364 141 398 136T461 126L464 122Q457 112 451 110T434 107Q392 107 347 115T258 139T175 177T103 229Q95 183 86 136T77 44Q77 0 85 -43T93 -129Q93 -135 92 -147T87 -171T77 -192T61 -202Q52 -202 47 -198T39 -187T36 -174T35
-160Z" />
<glyph unicode="l" glyph-name="null" horiz-adv-x="276" d="M-92 5Q-92 14 -88 17T-78 21T-66 22T-55 21Q-48 21 -38 22T-20 23Q40 23 66 56T93 145V148Q77 193 70 235T62 327Q62 345 64 382T72 463T87 555T110 640T144 704T190 729Q214 729 225 713T241 675T246
629T245 591Q245 476 216 364T139 148V133Q139 106 158 81Q169 69 180 58Q189 48 198 39T214 21Q218 17 231 16T257 14T281 11T292 3Q292 -8 279 -11T257 -15Q232 -15 211 -6T172 19T139 52T112 88H110Q107 88 105 80T99 61T84 35T56 10T8 -10T-67 -18Q-75 -18
-83 -15T-92 5ZM93 353Q93 335 93 323Q93 311 93 301T95 278T98 249Q98 247 100 237T105 214T111 193T118 183H120Q123 189 126 194Q128 199 131 203T136 212Q170 286 192 372T214 539V551Q214 560 213 576T211 607T209 635T208 650Q208 654 207 660T203 673T197
683T188 688Q183 688 181 684T176 677Q151 642 135 603T110 522T97 438T93 353Z" />
<glyph unicode="m" glyph-name="null" horiz-adv-x="550" d="M36 14Q31 116 23 217T14 421Q14 432 22 437T40 443Q48 443 54 439T63 429Q64 425 64 419Q64 413 64 411Q64 394 63 377T61 340Q61 286 66 230T77 119H80Q87 119 95 140T112 192T132 259T158 327T190
379T231 400Q244 400 251 390T263 367T267 339T268 314Q268 265 261 216T253 119Q253 112 254 101T263 88Q265 89 274 103T295 138T322 183T348 229T368 266T379 284Q382 295 384 308T391 332T405 350T429 358Q431 358 436 357T443 355Q446 333 446 295T450 220T472
156T524 128Q544 128 560 133T597 141Q603 143 606 136T609 124Q609 110 592 103T552 92T509 88T483 87Q459 87 444 102T419 139T400 183T382 220L373 212Q364 195 355 178Q347 164 340 149T327 124Q319 108 313 85T296 41T272 5T233 -10Q222 -10 217 -3T209 14T207
34Q207 44 207 50Q207 122 211 190T215 329Q203 329 191 304T167 241T142 160T116 78T90 15T61 -10Q52 -10 46 -2T36 14Z" />
<glyph unicode="n" glyph-name="null" horiz-adv-x="420" d="M21 51Q21 69 25 85T33 116T42 146T46 176Q46 202 43 235T29 294Q23 312 19 319T14 340Q14 351 24 359T43 367Q55 367 63 355T77 326T85 292T90 264H92Q95 264 99 268T106 277T113 287T118 294Q147
324 180 347T253 371Q292 371 316 337T355 253T374 152T379 62V21Q378 21 375 16T369 6T362 -4T357 -9Q339 -9 339 11V21Q339 24 340 34T341 46Q341 58 340 83T334 139T324 202T308 262T285 306T253 323Q226 323 204 312T164 281T129 238T98 188V76Q94 64 91 50T83
22T69 0T45 -9Q39 -9 35 -2T27 15T23 35T21 51Z" />
<glyph unicode="o" glyph-name="null" horiz-adv-x="281" d="M14 103Q14 123 24 159T51 231T91 293T138 319Q148 319 151 315T156 304T158 292T166 283Q187 269 204 262T235 244T255 216T263 167Q263 140 249 111T213 59T163 20T107 5Q87 5 71 12T41 33T21 65T14
103ZM63 118Q63 109 65 98T72 78T84 62T104 55Q124 55 145 64T182 88T209 123T220 167Q220 178 215 191T201 215T181 234T158 242Q138 242 121 229T91 198T71 158T63 118Z" />
<glyph unicode="p" glyph-name="null" horiz-adv-x="421" d="M0 -310Q0 -214 19 -123T75 60Q86 86 104 112T133 168V234Q133 266 130 297T122 360T114 422T110 485Q110 502 117 512T141 523Q154 523 164 517T175 498Q175 481 173 464T170 429Q170 382 171 330T180
229H183Q197 229 210 241T234 260Q266 278 298 292T367 306Q390 306 398 292T407 258Q407 222 394 188T360 122T314 62T263 11Q261 9 252 5T233 -5T212 -17T199 -29V-33Q199 -93 203 -153T207 -273V-293Q207 -297 206 -314T205 -350T203 -387T202 -408Q202 -429
199 -469T186 -548T159 -617T113 -647Q89 -647 72 -626T42 -573T21 -501T9 -424T2 -356T0 -310ZM42 -307Q42 -330 44 -371T54 -455T76 -534T115 -583Q126 -576 134 -553T147 -502T156 -448T160 -408Q161 -401 162 -388T164 -360T165 -335T166 -320V-197V-72Q158
-55 158 -39Q158 -23 150 -9V104H138Q138 104 133 95T121 72T107 44T97 20Q80 -16 70 -57T53 -140T45 -224T42 -307ZM217 80Q217 78 217 74T218 64T219 55T220 49Q221 46 224 45T229 43Q239 43 252 55T279 86T308 128T333 173T351 215T358 245Q358 254 355 255T344
257Q325 257 301 249T255 226T214 195T189 158Q189 156 189 144T188 129Q188 121 188 112T189 95T198 83T217 80Z" />
<glyph unicode="q" glyph-name="null" horiz-adv-x="551" d="M249 -245Q249 -176 256 -108T263 33V60Q256 70 248 74T232 82T219 94T214 118Q214 128 222 132T240 140T261 145T277 155Q282 176 288 203T295 255Q287 255 274 243T243 213T206 175T167 136T129 106T95
94Q80 94 65 95T39 101T20 116T12 145Q12 167 23 193T52 245T94 297T143 341T193 372T238 384Q255 384 272 376T307 368Q315 368 322 376T341 384Q350 384 358 381T366 368Q366 340 359 314T343 263T327 212T319 158Q319 150 324 150Q329 150 337 150Q362 150 384
162T426 194T465 235T499 277T530 308T558 321Q569 321 572 314T576 295Q576 289 564 275T532 242T491 203T449 163T418 131T405 112Q405 95 415 82T434 52Q447 22 455 -19T464 -94V-257Q464 -272 460 -296T447 -348T426 -404T399 -456T366 -494T329 -509Q312 -509
300 -499T281 -473T269 -441T263 -411Q262 -407 261 -395T258 -368T255 -340T253 -320Q253 -314 252 -303T251 -279T250 -258T249 -245ZM284 -245Q284 -253 284 -272Q284 -291 285 -315T290 -366T299 -413T314 -449T336 -463Q357 -463 373 -437T401 -375T421 -307T434
-260V-202Q434 -163 433 -122T425 -43T400 29T350 90H346Q326 90 314 67T295 9T286 -67T283 -146T283 -210T284 -245ZM71 150Q75 146 78 146T88 145Q113 145 139 161T188 200T232 247T267 288Q270 295 275 301T281 315Q281 323 275 327T261 333T245 335T232 336Q208
336 179 318T125 273T84 216T67 160Q67 158 69 155T71 150Z" />
<glyph unicode="r" glyph-name="null" horiz-adv-x="391" d="M-45 3Q-45 15 -35 30T-10 60T19 88T40 107Q65 138 88 173T129 247T157 326T167 409Q173 426 190 426Q201 426 206 419T215 402T221 380T229 360Q243 335 261 314T296 271T323 224T334 166Q334 140
327 115T320 63Q320 54 321 52T333 49Q346 49 358 53T383 62T407 72T431 76Q434 76 439 76Q445 76 445 71Q445 63 428 51T390 28T348 10T320 2Q300 2 286 16T272 51Q272 80 282 107T293 165Q293 190 286 210T265 249T236 283T201 315Q200 315 200 316Q200 317 199
318Q192 318 190 312Q179 267 156 223T104 138T40 60T-27 -9Q-28 -9 -28 -9T-31 -10Q-33 -11 -35 -11Q-43 -9 -44 -5T-45 3Z" />
<glyph unicode="s" glyph-name="null" horiz-adv-x="319" d="M18 34Q18 68 42 97T94 151T147 195T171 228Q171 238 147 239T93 242T39 252T14 286Q14 306 31 331T72 378T124 416T171 431Q177 431 187 428T206 420T221 409T228 397Q228 383 217 379Q198 381 179
380T144 370Q141 367 135 361T121 347T107 333T97 323Q92 316 90 313T88 304Q88 293 104 286T142 273T183 266T211 263Q232 263 250 275T285 302T320 329T359 341Q367 341 370 339T373 329Q373 317 356 306T318 285T280 264T263 242Q263 232 267 223T277 204T287
185T292 165Q292 138 270 108T216 54T150 13T90 -3Q80 -3 68 -2T44 3T26 14T18 34ZM81 49Q81 44 82 40T92 36Q116 36 144 50T197 86T238 135T255 188Q255 198 244 206T223 214Q209 214 185 195T138 148T98 93T81 49Z" />
<glyph unicode="t" glyph-name="null" horiz-adv-x="225" d="M64 -18Q64 2 64 8Q64 14 64 14T65 9T67 4T69 9T72 34Q72 40 72 52T74 77T75 101T76 118Q77 173 84 228T98 337T112 447T118 557Q118 567 115 569T103 571Q82 571 65 569T32 562T0 554T-35 547Q-41
546 -57 548T-90 555T-120 565T-133 577Q-133 586 -125 595T-107 605H78L120 611Q122 611 126 635T136 697T149 779T163 864T176 935T188 976Q190 983 198 987T215 992Q225 992 231 986T239 971T242 952T243 935Q243 917 237 903T223 875T206 849T191 820Q172 764
168 719T163 624Q163 618 167 616H192Q212 616 216 616T223 618T230 619T257 620Q264 620 287 620T334 616T378 605T398 584Q398 579 397 572T388 565Q386 565 381 569T373 574Q353 586 326 587T276 589Q264 589 245 589Q226 589 208 588T175 583T158 574Q148 555
148 528T145 477Q138 416 134 371T126 290T120 221T115 153T110 71T104 -36Q96 -49 90 -49Q77 -49 71 -39T64 -18Z" />
<glyph unicode="u" glyph-name="null" horiz-adv-x="424" d="M59 197Q59 209 59 237T60 298T61 358T62 399Q63 407 69 412T81 418Q92 418 98 412T104 397Q104 377 101 360T93 327V258V191Q93 182 94 155T100 99T114 48T140 25H149Q183 56 202 84T242 155Q244 159
250 176T263 215T279 261T296 307T309 341T318 355Q330 355 334 340T339 315Q339 289 335 264T327 214T318 164T314 113V62Q317 54 322 49T336 43Q343 43 350 47T365 58T377 70T388 80H393Q398 80 400 80T408 76V64Q408 53 399 40T378 16T351 -2T324 -9Q314 -9
305 -2T288 15T277 36T273 55Q273 71 275 86T278 118Q278 125 278 131Q278 137 273 140Q253 124 240 96T213 41T179 -5T125 -25Q109 -25 99 -15T82 9T72 39T66 66Q65 71 64 86T62 120T60 154T59 179V188V197Z" />
<glyph unicode="v" glyph-name="null" horiz-adv-x="273" d="M14 308Q14 322 22 327T42 333Q47 333 51 333T61 327Q62 326 67 304T79 251T94 183T111 115T127 63T140 42H144Q154 71 162 103T175 166Q175 168 176 176T177 193T179 210T180 220Q180 224 181 233T184
253T187 273T189 286Q190 294 193 316T201 362T215 404T235 423Q248 423 253 415T258 397Q258 388 252 365T239 318T225 273T217 249V166Q216 161 214 143T207 101T196 51T181 2T162 -35T138 -50Q135 -50 124 -27T100 33T71 112T43 195T22 266T14 308Z" />
<glyph unicode="w" glyph-name="null" horiz-adv-x="511" d="M119 21Q104 73 92 124T63 229Q59 244 51 265T35 309T20 355T14 397Q14 406 22 412T41 419Q50 419 59 399T78 348T97 281T114 214T129 161T144 137Q154 144 162 167T178 220T193 285T210 347T231 393T260
412Q272 412 281 394T296 349T307 290T316 231T324 186T334 168Q337 168 346 190T370 247T402 321T442 395T488 452T540 475Q540 471 526 452T494 409T459 360T436 321Q419 275 402 230T372 137Q370 128 369 111T363 77T349 48T323 35Q313 35 306 56T294 110T283
181T273 252T263 309T249 336Q238 329 229 302T213 239T197 163T181 90T162 34T137 12Q132 12 128 15T119 21Z" />
<glyph unicode="x" glyph-name="null" horiz-adv-x="341" d="M-41 -148Q-41 -122 -30 -104T-9 -63Q-5 -58 3 -43T21 -9T38 25T49 49Q55 61 65 76T86 109T105 143T113 175Q113 203 99 232T76 286Q64 319 58 354T51 424V455Q58 462 63 466T77 470Q91 470 97 456T107
419T111 369T117 317T128 272T149 244Q168 260 184 292T217 356T255 412T307 436Q318 436 321 431T324 418V407Q322 405 318 401T310 393T301 386T296 382Q288 376 275 360T248 323T220 278T194 232T175 193T167 167Q167 153 176 132T199 91T232 57T267 42Q273
42 277 45T286 53T295 60T307 64Q315 64 317 62T320 52Q320 28 300 16T258 3Q237 3 220 12T190 35T166 67T145 103H138Q120 103 106 83T78 33T53 -33T30 -99T6 -150T-20 -170Q-31 -170 -36 -163T-41 -148Z" />
<glyph unicode="y" glyph-name="null" horiz-adv-x="463" d="M63 -405Q63 -293 98 -180T192 28Q201 41 216 58T246 95T272 134T283 170Q283 189 283 210T280 253T271 295T255 333H252Q247 333 246 332T244 328L200 242Q200 237 189 215T163 165T134 114T115 82Q111
76 104 69T89 56T71 46T52 42Q40 42 33 50T22 71T16 96T14 118Q14 161 15 204T18 292Q21 300 24 314T32 341T46 363T67 373Q74 373 76 372T82 366V328Q82 285 73 243T63 156Q63 144 64 137T71 115H75Q86 115 101 138T133 195T169 269T206 344T242 401T273 424Q283
424 290 411T302 378T310 332T316 284T320 242T323 214Q328 207 329 207H333Q368 236 400 266T470 323H474Q476 323 477 324Q486 324 492 317T498 298Q498 293 486 284T456 262T416 234T376 200T345 162T333 120Q333 83 335 44T337 -35Q337 -96 333 -156T316 -274T280
-388T220 -495Q204 -519 188 -536T138 -553Q113 -553 99 -536T76 -494T66 -445T63 -405ZM103 -375Q103 -385 104 -406T109 -449T122 -487T145 -504Q165 -504 179 -488T202 -457Q233 -414 251 -366T280 -267T294 -164T298 -61V-55Q298 -47 297 -26T295 19T293 63T292
92Q287 97 284 97H281Q240 57 208 -1T152 -124T116 -254T103 -375Z" />
<glyph unicode="z" glyph-name="null" horiz-adv-x="652" d="M327 -346Q327 -308 335 -268T356 -188T386 -111T423 -42Q427 -35 439 -16T463 24T486 63T496 88V148Q490 158 484 174T471 205T452 231T424 242H414Q412 239 405 232T391 219T377 207T368 200Q353
184 343 154T323 95T300 43T264 21Q255 21 248 28T240 46Q240 69 248 93T261 139Q269 167 272 202T276 264Q276 273 274 279T261 286Q250 286 232 271T191 232T145 179T99 123T57 74T27 42Q20 37 15 36T3 35Q-6 35 -10 42T-15 59Q-15 65 -3 80T25 113T56 145T76
166Q94 186 115 215T162 272T217 319T278 339Q280 339 287 338T297 337Q321 318 324 291T327 234H330Q350 262 371 283T426 305Q452 305 471 291T503 256T524 211T538 166H545Q552 166 565 181T594 220T628 269T663 319T697 357T725 373Q727 373 733 373T741 368V362V357Q741
356 742 355Q742 327 728 304T693 259T647 217T601 175T565 129T551 77Q551 53 554 29T558 -21Q558 -76 554 -126T538 -225T506 -319T455 -411Q447 -425 427 -436T391 -447Q371 -447 359 -437T339 -412T330 -380T327 -346ZM372 -328Q372 -333 373 -343T378 -363T386
-382T397 -392L405 -388Q407 -385 414 -379T423 -370Q451 -338 468 -300T495 -220T508 -135T511 -51Q511 -48 511 -41Q511 -34 511 -26Q511 -18 511 -11T510 0Q510 3 509 7Q507 14 504 14H503Q485 -2 463 -45T420 -141T386 -245T372 -328Z" />
<glyph unicode="{" glyph-name="null" horiz-adv-x="479" d="M276 822Q276 829 288 864Q291 869 293 877T298 896L304 903Q304 903 306 904Q312 917 321 929T340 953H339H346Q355 953 361 949T367 937Q367 929 366 925Q338 883 324 840T310 755Q310 704 334 625T400
452V447Q400 435 386 432Q351 422 314 412T238 391Q236 391 235 390T232 389Q222 384 201 376T160 359L355 327Q360 325 365 321T371 308Q352 241 343 188T333 92Q333 50 339 13T360 -61Q366 -72 373 -83T389 -106L388 -105Q390 -111 395 -120T403 -138Q401 -146
398 -150T384 -155Q377 -155 368 -148T350 -123H353Q322 -77 308 -23T293 97Q293 137 300 184T320 284V294L163 324Q158 324 136 333Q120 338 113 342T105 355Q105 373 173 403Q217 420 261 434T350 460L294 609Q281 640 275 676T268 757V782Q268 796 276 820V822Z"
/>
<glyph unicode="|" glyph-name="null" horiz-adv-x="391" d="M202 -95Q191 -95 188 -81V-82Q166 25 166 179V231Q168 328 170 405T175 555T181 705T186 879Q189 903 203 903Q221 903 221 881V869L202 127Q202 49 212 -1Q214 -18 216 -36T221 -71V-77Q221 -95 202 -95Z" />
<glyph unicode="}" glyph-name="null" horiz-adv-x="431" d="M173 233Q208 183 227 131T246 23Q246 -75 194 -166Q190 -175 175 -175Q167 -175 162 -172T156 -160V-157Q181 -109 194 -64T207 23Q207 67 194 109T151 191V192Q148 195 148 199Q133 216 126 227T118
242Q118 249 139 257L298 319L271 337Q251 344 217 354T131 381Q118 383 118 397Q118 398 119 399Q150 478 169 554T188 699Q188 743 179 782T151 861Q143 876 136 895Q131 901 125 910T115 925Q119 942 136 942Q143 942 150 938Q188 892 207 831T226 697Q226 649
219 602T199 503Q191 476 182 451T165 407L169 405Q173 403 176 403Q185 400 195 397T214 392H212Q214 391 214 391Q214 392 215 392Q225 389 240 384T272 371Q277 369 285 367T296 360H295Q326 351 340 339T355 314Q355 308 352 305T344 298L173 233Z" />
<glyph unicode="~" glyph-name="null" horiz-adv-x="911" d="M776 423Q677 312 541 312Q457 312 418 367Q413 371 409 377T400 389Q398 395 391 403T381 416Q382 413 378 415T368 423H358Q281 423 201 297Q198 290 194 284T183 264Q181 261 179 256T175 245Q172
243 168 239T158 235Q139 235 139 255Q139 260 141 267T149 284Q163 321 185 350T233 405Q297 462 358 462Q400 462 423 426L424 423L432 414L440 401L445 397V399Q482 353 545 353Q587 353 625 366T698 408H697L728 432Q755 467 771 467Q790 467 790 450Q790 442
786 437T776 423Z" />
</font>
</defs>
</svg>
